<svg width="40" height="40" viewBox="0 0 40 40" fill="none" xmlns="http://www.w3.org/2000/svg">
  <rect width="40" height="40" rx="8" fill="#16A34A"/>
  <path d="M20 12C18.5 12 17.5 13 17 14.5C16.5 13 15.5 12 14 12C12 12 11 13.5 11 15.5C11 18 13 20.5 17 24C17.5 24.5 18.5 25.5 20 27C21.5 25.5 22.5 24.5 23 24C27 20.5 29 18 29 15.5C29 13.5 28 12 26 12C24.5 12 23.5 13 23 14.5C22.5 13 21.5 12 20 12Z" fill="white"/>
  <path d="M20 28V32" stroke="white" stroke-width="2" stroke-linecap="round"/>
</svg>
